# xmcd CD database file
#
# Track frame offsets:
#	187
#	17409
#	59662
#	96567
#	118604
#	138522
#	165044
#
# Disc length: 2555 seconds
#
# Revision: 0
# Processed by: cddbd v1.4PL0 Copyright (c) Steve Scherf et al.
# Submitted via: CDex 1.50
#
DISCID=5609f907
DTITLE=Ahmad Jamal - Poinciana Revisited
DYEAR=1969
DGENRE=Jazz
TTITLE0=Have You Met Miss Jones
TTITLE1=Poinciana
TTITLE2=Lament
TTITLE3=Call Me
TTITLE4=Theme From Valley Of The Dolls
TTITLE5=Frank's Tune
TTITLE6=How Insensitive
EXTD=YEAR: 1969
EXTT0=
EXTT1=
EXTT2=
EXTT3=
EXTT4=
EXTT5=
EXTT6=
PLAYORDER=
